HIERARCHY
ROOT SpineBase
{
  OFFSET 0.000000 0.000000 0.000000
  CHANNELS 6 Xposition Yposition Zposition Zrotation Xrotation Yrotation
  JOINT SpineMid
  {
    OFFSET 0.000000 33.006591 0.000000
    CHANNELS 3 Zrotation Xrotation Yrotation
    JOINT SpineShoulder
    {
      OFFSET 0.109954 24.183528 -0.789986
      CHANNELS 3 Zrotation Xrotation Yrotation
      JOINT Neck
      {
        OFFSET 0.111140 7.918584 -0.637353
        CHANNELS 3 Zrotation Xrotation Yrotation
        JOINT Head
        {
          OFFSET 2.409278 11.345132 4.755268
          CHANNELS 3 Zrotation Xrotation Yrotation
          End Site
          {
            OFFSET 0 0 0
          }
        }
      }
      JOINT ShoulderLeft
      {
        OFFSET -1.523517 -6.606184 -14.330445
        CHANNELS 3 Zrotation Xrotation Yrotation
        JOINT ElbowLeft
        {
          OFFSET -0.192184 -28.894945 -6.938800
          CHANNELS 3 Zrotation Xrotation Yrotation
          JOINT WristLeft
          {
            OFFSET 4.595263 -21.804496 -0.932670
            CHANNELS 3 Zrotation Xrotation Yrotation
            JOINT HandLeft
            {
              OFFSET -0.771619 -4.860505 3.236585
              CHANNELS 3 Zrotation Xrotation Yrotation
              JOINT HandTipLeft
              {
                OFFSET 2.710468 -7.249764 1.104831
                CHANNELS 3 Zrotation Xrotation Yrotation
                End Site
                {
                  OFFSET 0 0 0
                }
              }
              JOINT ThumbLeft
              {
                OFFSET 1.268520 2.756353 3.357399
                CHANNELS 3 Zrotation Xrotation Yrotation
                End Site
                {
                  OFFSET 0 0 0
                }
              }
            }
          }
        }
      }
      JOINT ShoulderRight
      {
        OFFSET 9.250156 -4.639263 12.776885
        CHANNELS 3 Zrotation Xrotation Yrotation
        JOINT ElbowRight
        {
          OFFSET 5.980676 -22.985465 5.778388
          CHANNELS 3 Zrotation Xrotation Yrotation
          JOINT WristRight
          {
            OFFSET -3.452703 -26.723048 11.209320
            CHANNELS 3 Zrotation Xrotation Yrotation
            JOINT HandRight
            {
              OFFSET 2.046823 -9.049793 2.017945
              CHANNELS 3 Zrotation Xrotation Yrotation
              JOINT HandTipRight
              {
                OFFSET 0.169951 -4.821413 -0.584897
                CHANNELS 3 Zrotation Xrotation Yrotation
                End Site
                {
                  OFFSET 0 0 0
                }
              }
              JOINT ThumbRight
              {
                OFFSET -1.396162 -1.383208 -0.697461
                CHANNELS 3 Zrotation Xrotation Yrotation
                End Site
                {
                  OFFSET 0 0 0
                }
              }
            }
          }
        }
      }
    }
  }
  JOINT HipLeft
  {
    OFFSET -1.672530 0.869049 -7.295428
    CHANNELS 3 Zrotation Xrotation Yrotation
    JOINT KneeLeft
    {
      OFFSET 1.523551 -37.772896 -1.534005
      CHANNELS 3 Zrotation Xrotation Yrotation
      JOINT AnkleLeft
      {
        OFFSET -7.727142 -37.358042 0.503826
        CHANNELS 3 Zrotation Xrotation Yrotation
        JOINT FootLeft
        {
          OFFSET 3.022470 -7.932584 -0.299822
          CHANNELS 3 Zrotation Xrotation Yrotation
          End Site
          {
            OFFSET 0 0 0
          }
        }
      }
    }
  }
  JOINT HipRight
  {
    OFFSET 3.304079 0.195159 -0.589953
    CHANNELS 3 Zrotation Xrotation Yrotation
    JOINT KneeRight
    {
      OFFSET 4.155569 -40.481148 -10.752208
      CHANNELS 3 Zrotation Xrotation Yrotation
      JOINT AnkleRight
      {
        OFFSET 1.768245 -34.984674 2.565676
        CHANNELS 3 Zrotation Xrotation Yrotation
        JOINT FootRight
        {
          OFFSET 10.591802 -3.955477 -7.242815
          CHANNELS 3 Zrotation Xrotation Yrotation
          End Site
          {
            OFFSET 0 0 0
          }
        }
      }
    }
  }
}
MOTION
Frames: 9
Frame Time: 0.033333
-68.898177 82.444614 313.747598 -1.755447 -1.969282 -64.782323 -0.092795 0.356103 64.711000 0.123104 0.585800 -0.047143 -18.702876 12.163149 7.927213 0.000000 0.000000 0.000000 1.347076 1.150091 0.078842 -1.348975 -1.346820 -0.242729 -2.568734 -0.764937 -2.007458 17.375503 20.084612 8.042586 0.000000 0.000000 0.000000 0.000000 0.000000 0.000000 1.347076 1.150091 0.078842 -0.000000 0.000000 0.000000 -0.000000 0.000000 0.000000 -0.000000 0.000000 0.000000 0.000000 0.000000 0.000000 0.000000 0.000000 0.000000 -0.166634 3.478710 64.662282 -1.306234 -1.490835 0.448451 1.378947 0.939801 -0.794549 0.000000 0.000000 0.000000 7.269051 2.131965 62.759114 -3.534053 7.516235 1.916326 -0.773571 -0.098563 1.174952 0.000000 0.000000 0.000000
-69.081446 83.238779 314.084080 -1.985461 -2.235429 -65.149890 -0.141860 0.453761 65.065783 0.109278 0.699061 -0.053327 -18.150312 12.303919 7.765071 0.000000 0.000000 0.000000 1.520720 1.219847 0.089189 -1.482360 -1.356895 -0.240900 -2.977385 -0.110352 -2.446130 17.371898 18.580211 8.419362 0.000000 0.000000 0.000000 0.000000 0.000000 0.000000 1.520720 1.219847 0.089189 -0.000000 0.000000 0.000000 -0.000000 0.000000 0.000000 -0.000000 0.000000 0.000000 0.000000 0.000000 0.000000 0.000000 0.000000 0.000000 -0.733410 4.085390 65.060917 -1.429515 -1.901914 0.411364 1.546250 0.911553 -0.770020 0.000000 0.000000 0.000000 7.297396 2.426784 63.046188 -3.561194 7.710340 1.950076 0.822922 -0.709469 -3.373964 0.000000 0.000000 0.000000
-69.290954 83.892697 314.479648 -2.251568 -2.536660 -65.861570 -0.159968 0.534231 65.760462 0.106018 0.768695 -0.059390 -17.416124 12.796286 7.540545 0.000000 0.000000 0.000000 1.719079 1.407172 0.097629 -1.602883 -1.317022 -0.228215 -3.280158 0.089452 -2.766666 18.098704 20.134342 9.221323 0.000000 0.000000 0.000000 0.000000 0.000000 0.000000 1.719079 1.407172 0.097629 -0.000000 0.000000 0.000000 -0.000000 0.000000 0.000000 -0.000000 0.000000 0.000000 0.000000 0.000000 0.000000 0.000000 0.000000 0.000000 -1.309556 4.705308 65.805965 -1.465137 -2.287200 0.383742 1.574193 0.899372 -0.750019 0.000000 0.000000 0.000000 7.345098 2.821088 63.648189 -3.623733 7.949438 2.001407 0.400264 -0.622858 -2.399713 0.000000 0.000000 0.000000
-69.495300 84.428484 314.859342 -2.485798 -2.778994 -66.562583 -0.194467 0.570075 66.445467 0.092775 0.787496 -0.066923 -17.255739 13.338173 7.609749 0.000000 0.000000 0.000000 1.941855 1.590960 0.107161 -1.673733 -1.293113 -0.220610 -3.933514 0.354788 -3.278128 19.393965 23.857619 10.781598 0.000000 0.000000 0.000000 0.000000 0.000000 0.000000 1.941855 1.590960 0.107161 -0.000000 0.000000 0.000000 -0.000000 0.000000 0.000000 -0.188738 -0.916505 -0.010931 0.000000 0.000000 0.000000 0.000000 0.000000 0.000000 -1.856098 5.222820 66.547277 -1.418589 -2.634563 0.354200 -3.574986 -2.883844 -1.997604 0.000000 0.000000 0.000000 7.547730 3.138820 64.219297 -3.721667 8.306851 2.080033 -4.146795 0.329617 9.327363 0.000000 0.000000 0.000000
-69.716257 84.677144 315.191121 -2.707396 -2.872917 -67.520777 -0.204144 0.545802 67.389392 0.077341 0.757504 -0.076822 -16.664557 13.567076 7.481936 0.000000 0.000000 0.000000 3.037923 2.166989 -0.113463 -2.565246 -1.745909 -0.031399 -4.647593 0.607538 -3.803112 19.662811 24.502712 11.615826 0.000000 0.000000 0.000000 0.000000 0.000000 0.000000 2.197275 1.724040 0.119790 -0.000000 0.000000 0.000000 -0.000000 0.000000 0.000000 -0.484418 -1.267582 0.008738 0.000000 0.000000 0.000000 0.000000 0.000000 0.000000 -2.081528 5.604033 67.520911 -1.323968 -2.796633 0.351463 -2.823275 -1.986662 -1.634117 0.000000 0.000000 0.000000 7.781901 3.547351 65.038138 -3.897315 8.541815 2.169492 -5.944029 0.481512 13.984029 0.000000 0.000000 0.000000
-69.886350 84.593991 315.299914 -2.834521 -2.700604 -67.867584 -0.178492 0.430716 67.730847 0.047173 0.661251 -0.089155 -15.213049 13.344396 6.899959 0.000000 0.000000 0.000000 3.478634 2.425254 -0.152639 -2.764338 -2.040021 -0.001638 -4.112142 1.140325 -3.523937 17.188800 26.466501 12.529026 0.000000 0.000000 0.000000 0.000000 0.000000 0.000000 2.448713 1.719210 0.136451 -0.000000 0.000000 0.000000 -0.000000 0.000000 0.000000 -0.931003 -1.876766 0.031607 0.000000 0.000000 0.000000 0.000000 0.000000 0.000000 -1.895514 5.757641 67.861099 -1.130211 -2.845197 0.371824 2.404594 2.722313 -0.143145 0.000000 0.000000 0.000000 8.014117 3.788974 65.315397 -4.053894 8.519668 2.219357 -10.619041 -0.055677 25.363425 0.000000 0.000000 0.000000
-70.030095 83.989950 315.518073 -2.904720 -2.531325 -66.981693 -0.127856 0.210370 66.840137 0.019412 0.498847 -0.103477 -13.560231 13.689889 6.226538 0.000000 0.000000 0.000000 3.997138 2.965787 -0.212826 -2.863029 -2.564223 0.013276 -2.151522 2.727016 -2.361410 12.495065 21.567590 11.071684 0.000000 0.000000 0.000000 0.000000 0.000000 0.000000 2.734141 1.841871 0.150541 -0.000000 0.000000 0.000000 -0.000000 0.000000 0.000000 -1.248720 -1.819232 0.067689 0.000000 0.000000 0.000000 0.000000 0.000000 0.000000 -2.156005 6.074157 67.036111 -0.650660 -3.666998 0.427008 14.800514 13.770667 1.322386 0.000000 0.000000 0.000000 8.996906 3.529583 64.269656 -4.280819 9.234741 2.391026 -16.399681 -0.323931 45.583644 0.000000 0.000000 0.000000
-70.296954 83.750850 315.915184 -3.133929 -2.504393 -66.734708 -0.146036 0.214444 66.582073 0.014817 0.436512 -0.115029 -12.562036 14.305324 5.796919 0.000000 0.000000 0.000000 4.455365 3.534736 -0.271425 -2.918836 -3.950239 -0.141846 1.931361 8.891204 -0.384965 5.052805 14.983964 9.400438 0.000000 0.000000 0.000000 0.000000 0.000000 0.000000 2.971648 1.860126 0.165150 -0.000000 0.000000 0.000000 -0.000000 0.000000 0.000000 -1.388024 -1.565070 0.094459 0.000000 0.000000 0.000000 0.000000 0.000000 0.000000 -2.530949 6.619016 66.855102 -0.187613 -4.303776 0.456388 18.626181 18.132146 1.384200 0.000000 0.000000 0.000000 9.522842 3.694942 63.872378 -4.479409 9.575914 2.504998 -22.693218 -5.341497 63.437618 0.000000 0.000000 0.000000
-70.831655 83.684434 316.472220 -3.533535 -2.471394 -66.305822 -0.097517 0.209023 66.131923 0.072326 0.393001 -0.129269 -12.287621 14.319792 5.858890 0.000000 0.000000 0.000000 5.120728 4.363033 -0.368156 -2.516698 -4.859831 -0.108111 5.780228 16.348763 0.883048 -1.787006 4.175180 5.779602 0.000000 0.000000 0.000000 0.000000 0.000000 0.000000 3.299714 1.919079 0.183765 -0.000000 0.000000 0.000000 -0.000000 0.000000 0.000000 -1.346170 -1.111977 0.111230 0.000000 0.000000 0.000000 0.000000 0.000000 0.000000 -2.306009 8.050633 66.414636 -1.092131 -4.468215 0.403404 24.157937 22.821334 1.089986 0.000000 0.000000 0.000000 9.820278 4.359307 63.236191 -4.882522 9.456507 2.627978 -26.878470 -12.475775 73.166465 0.000000 0.000000 0.000000
